<?xml version="1.0" encoding="UTF-8" standalone="no"?>
<svg
   width="2400"
   height="800"
   viewBox="0 0 2400 800"
   version="1.1"
   id="svg74"
   xmlns="http://www.w3.org/2000/svg"
   xmlns:svg="http://www.w3.org/2000/svg">
  <title
     id="title1">LuXia</title>
  <defs
     id="defs16">
    <linearGradient
       id="mwarm"
       gradientUnits="userSpaceOnUse"
       x1="174.08"
       y1="174.08"
       x2="849.92"
       y2="849.92">
      <stop
         offset="0"
         stop-color="#D98C73"
         id="stop1" />
      <stop
         offset="0.5"
         stop-color="#B8664F"
         stop-opacity="0.9"
         id="stop2" />
      <stop
         offset="1"
         stop-color="#8E4A3A"
         stop-opacity="0.28"
         id="stop3" />
    </linearGradient>
    <linearGradient
       id="mcool"
       gradientUnits="userSpaceOnUse"
       x1="849.92"
       y1="174.08"
       x2="174.08"
       y2="849.92">
      <stop
         offset="0"
         stop-color="#8F9BE6"
         id="stop4" />
      <stop
         offset="0.5"
         stop-color="#7078CF"
         stop-opacity="0.95"
         id="stop5" />
      <stop
         offset="1"
         stop-color="#6A4DB5"
         stop-opacity="0.43000000000000005"
         id="stop6" />
    </linearGradient>
    <radialGradient
       id="mcore"
       gradientUnits="userSpaceOnUse"
       cx="512.0"
       cy="512.0"
       r="307.2">
      <stop
         offset="0"
         stop-color="#FFFFFF"
         stop-opacity="1"
         id="stop7" />
      <stop
         offset="0.12"
         stop-color="#FFE7B0"
         stop-opacity="0.95"
         id="stop8" />
      <stop
         offset="0.4"
         stop-color="#FFE7B0"
         stop-opacity="0.35"
         id="stop9" />
      <stop
         offset="1"
         stop-color="#FFFFFF"
         stop-opacity="0"
         id="stop10" />
    </radialGradient>
    <filter
       id="mglow"
       x="-0.065887399"
       y="-0.071225398"
       width="1.1317748"
       height="1.1424508">
      <feGaussianBlur
         stdDeviation="22.528"
         id="feGaussianBlur10" />
    </filter>
    <pattern
       id="mgrid"
       patternUnits="userSpaceOnUse"
       width="22.528"
       height="22.528">
      <rect
         x="2.48"
         y="2.48"
         width="17.57"
         height="17.57"
         rx="2.11"
         fill="#FFFFFF"
         id="rect10" />
    </pattern>
    <mask
       id="mpix"
       maskUnits="userSpaceOnUse"
       x="0"
       y="0"
       width="1024"
       height="1024">
      <rect
         x="0"
         y="0"
         width="1024"
         height="1024"
         fill="url(#mgrid)"
         id="rect11" />
    </mask>
    <linearGradient
       id="bg"
       x1="0"
       y1="0"
       x2="0"
       y2="1">
      <stop
         offset="0"
         stop-color="#FFF9F1"
         id="stop11" />
      <stop
         offset="1"
         stop-color="#F1E2CE"
         id="stop12" />
    </linearGradient>
    <linearGradient
       id="lu"
       gradientUnits="userSpaceOnUse"
       x1="599.7"
       y1="0"
       x2="1074.7"
       y2="0">
      <stop
         offset="0"
         stop-color="#B8664F"
         id="stop13" />
      <stop
         offset="1"
         stop-color="#D98C73"
         id="stop14" />
    </linearGradient>
    <linearGradient
       id="ia"
       gradientUnits="userSpaceOnUse"
       x1="1471.3"
       y1="0"
       x2="1800.3"
       y2="0">
      <stop
         offset="0"
         stop-color="#8F9BE6"
         id="stop15" />
      <stop
         offset="1"
         stop-color="#6A4DB5"
         id="stop16" />
    </linearGradient>
    <filter
       id="textglow"
       x="-0.12752557"
       y="-0.11710824"
       width="1.2550511"
       height="1.2342165">
      <feGaussianBlur
         stdDeviation="14.7"
         id="feGaussianBlur16" />
    </filter>
  </defs>
  <rect
     x="0"
     y="0"
     width="2400"
     height="800"
     fill="url(#bg)"
     id="rect16" />
  <g
     style="font-family:Bahnschrift;font-weight:700;font-size:420px"
     id="g19">
    <path
       d="M 632.51251,549 V 250.81641 h 56.19141 V 549 Z m 25.01953,0 V 494.85937 H 832.25861 V 549 Z m 333.86719,0 V 336.12891 h 55.98637 V 549 Z M 925.36407,336.12891 V 465.5332 q 0,15.38086 8.61329,23.99414 8.81836,8.40821 24.60937,8.40821 15.79102,0 24.19922,-8.61328 8.61328,-8.81836 8.61328,-25.01954 l 2.87109,46.55274 q -5.33203,15.79101 -18.86718,28.50586 -13.33008,12.71484 -34.65821,12.71484 -34.24804,0 -52.91015,-22.14844 -18.66211,-22.14843 -18.66211,-62.34375 V 336.12891 Z"
       id="text16"
       style="opacity:0.1225;fill:url(#lu);filter:url(#textglow)"
       aria-label="Lu" />
    <path
       d="m 1496.9348,307.00781 v -56.1914 h 56.1914 v 56.1914 z m 0,241.99219 V 336.12891 h 56.1914 V 549 Z m 225.586,0 V 414.05859 q 0,-14.76562 -9.8438,-22.76367 -9.8437,-7.99805 -27.8906,-7.99805 -11.8946,0 -23.584,3.89649 -11.6895,3.69141 -20.7129,10.86914 l -34.8633,-34.24805 q 12.7149,-14.56054 33.6328,-22.55859 20.918,-8.20313 46.3477,-8.20313 42.041,0 65.0098,20.71289 22.9687,20.7129 22.9687,58.44727 V 549 Z m -59.2676,3.07617 q -34.043,0 -51.0645,-16.20117 -17.0215,-16.20117 -17.0215,-49.62891 0,-31.78711 18.8672,-47.37304 19.0723,-15.79102 57.0117,-15.79102 h 53.3204 l 2.871,42.86133 h -55.9863 q -12.7148,0 -19.0722,5.12695 -6.3575,4.92188 -6.3575,15.17578 0,10.45899 7.9981,15.58594 8.2031,4.92188 24.1992,4.92188 22.3535,0 33.4277,-5.12696 11.0743,-5.12695 11.0743,-15.99609 l 4.3066,30.9668 q -1.2305,12.09961 -10.8691,20.09765 -9.6387,7.79297 -23.7891,11.68946 -13.9453,3.6914 -28.916,3.6914 z"
       id="text17"
       style="opacity:0.1225;fill:url(#ia);filter:url(#textglow)"
       aria-label="ia" />
    <path
       d="M 632.51251,549 V 250.81641 h 56.19141 V 549 Z m 25.01953,0 V 494.85937 H 832.25861 V 549 Z m 333.86719,0 V 336.12891 h 55.98637 V 549 Z M 925.36407,336.12891 V 465.5332 q 0,15.38086 8.61329,23.99414 8.81836,8.40821 24.60937,8.40821 15.79102,0 24.19922,-8.61328 8.61328,-8.81836 8.61328,-25.01954 l 2.87109,46.55274 q -5.33203,15.79101 -18.86718,28.50586 -13.33008,12.71484 -34.65821,12.71484 -34.24804,0 -52.91015,-22.14844 -18.66211,-22.14843 -18.66211,-62.34375 V 336.12891 Z"
       id="text18"
       style="fill:url(#lu)"
       aria-label="Lu" />
    <path
       d="m 1496.9348,307.00781 v -56.1914 h 56.1914 v 56.1914 z m 0,241.99219 V 336.12891 h 56.1914 V 549 Z m 225.586,0 V 414.05859 q 0,-14.76562 -9.8438,-22.76367 -9.8437,-7.99805 -27.8906,-7.99805 -11.8946,0 -23.584,3.89649 -11.6895,3.69141 -20.7129,10.86914 l -34.8633,-34.24805 q 12.7149,-14.56054 33.6328,-22.55859 20.918,-8.20313 46.3477,-8.20313 42.041,0 65.0098,20.71289 22.9687,20.7129 22.9687,58.44727 V 549 Z m -59.2676,3.07617 q -34.043,0 -51.0645,-16.20117 -17.0215,-16.20117 -17.0215,-49.62891 0,-31.78711 18.8672,-47.37304 19.0723,-15.79102 57.0117,-15.79102 h 53.3204 l 2.871,42.86133 h -55.9863 q -12.7148,0 -19.0722,5.12695 -6.3575,4.92188 -6.3575,15.17578 0,10.45899 7.9981,15.58594 8.2031,4.92188 24.1992,4.92188 22.3535,0 33.4277,-5.12696 11.0743,-5.12695 11.0743,-15.99609 l 4.3066,30.9668 q -1.2305,12.09961 -10.8691,20.09765 -9.6387,7.79297 -23.7891,11.68946 -13.9453,3.6914 -28.916,3.6914 z"
       id="text19"
       style="fill:url(#ia)"
       aria-label="ia" />
  </g>
  <g
     transform="translate(1074.3,195.4) scale(0.38802)"
     id="g35">
    <g
       filter="url(#mglow)"
       opacity="0.9"
       id="g20">
      <polygon
         points="163.2,184.9 777.5,922.3 922.3,777.5 184.9,163.2"
         fill="url(#mwarm)"
         id="polygon19" />
      <polygon
         points="839.1,163.2 101.7,777.5 246.5,922.3 860.8,184.9"
         fill="url(#mcool)"
         id="polygon20" />
    </g>
    <polygon
       points="163.2,184.9 777.5,922.3 922.3,777.5 184.9,163.2"
       fill="url(#mwarm)"
       id="polygon21" />
    <g
       mask="url(#mpix)"
       id="g22">
      <polygon
         points="839.1,163.2 101.7,777.5 246.5,922.3 860.8,184.9"
         fill="url(#mcool)"
         id="polygon22" />
    </g>
    <circle
       cx="512.0"
       cy="512.0"
       r="307.2"
       fill="url(#mcore)"
       id="circle22" />
    <circle
       cx="174.08"
       cy="174.08"
       r="53.2"
       fill="#FFD68C"
       stroke="#FFF5DC"
       stroke-width="8.2"
       id="circle23" />
    <g
       stroke="#A0EBFF"
       stroke-width="8.2"
       stroke-linecap="round"
       id="g34">
      <line
         x1="821.8"
         y1="122.9"
         x2="821.8"
         y2="99.8"
         id="line23" />
      <line
         x1="798.7"
         y1="145.9"
         x2="775.7"
         y2="145.9"
         id="line24" />
      <line
         x1="821.8"
         y1="225.3"
         x2="821.8"
         y2="248.3"
         id="line25" />
      <line
         x1="901.1"
         y1="145.9"
         x2="924.2"
         y2="145.9"
         id="line26" />
      <line
         x1="849.9"
         y1="122.9"
         x2="849.9"
         y2="99.8"
         id="line27" />
      <line
         x1="798.7"
         y1="174.1"
         x2="775.7"
         y2="174.1"
         id="line28" />
      <line
         x1="849.9"
         y1="225.3"
         x2="849.9"
         y2="248.3"
         id="line29" />
      <line
         x1="901.1"
         y1="174.1"
         x2="924.2"
         y2="174.1"
         id="line30" />
      <line
         x1="878.1"
         y1="122.9"
         x2="878.1"
         y2="99.8"
         id="line31" />
      <line
         x1="798.7"
         y1="202.2"
         x2="775.7"
         y2="202.2"
         id="line32" />
      <line
         x1="878.1"
         y1="225.3"
         x2="878.1"
         y2="248.3"
         id="line33" />
      <line
         x1="901.1"
         y1="202.2"
         x2="924.2"
         y2="202.2"
         id="line34" />
    </g>
    <rect
       x="798.7"
       y="122.9"
       width="102.4"
       height="102.4"
       rx="15.4"
       fill="#5AC8FF"
       stroke="#C8FAFF"
       stroke-width="8.2"
       id="rect34" />
  </g>
  <g
     id="decor">
    <path
       d="M0,30 C-40,5 -50,-25 -25,-35 C-10,-40 0,-28 0,-20 C0,-28 10,-40 25,-35 C50,-25 40,5 0,30 Z"
       transform="translate(336.0,240.0) rotate(-15) scale(0.900)"
       fill="#E8A0A8"
       opacity="0.8"
       id="path35" />
    <path
       d="M0,30 C-40,5 -50,-25 -25,-35 C-10,-40 0,-28 0,-20 C0,-28 10,-40 25,-35 C50,-25 40,5 0,30 Z"
       transform="translate(2088.0,240.0) rotate(15) scale(0.800)"
       fill="#E8A0A8"
       opacity="0.8"
       id="path36" />
    <path
       d="M0,30 C-40,5 -50,-25 -25,-35 C-10,-40 0,-28 0,-20 C0,-28 10,-40 25,-35 C50,-25 40,5 0,30 Z"
       transform="translate(240.0,576.0) rotate(-25) scale(0.500)"
       fill="#E8A0A8"
       opacity="0.8"
       id="path37" />
    <path
       d="M0,30 C-40,5 -50,-25 -25,-35 C-10,-40 0,-28 0,-20 C0,-28 10,-40 25,-35 C50,-25 40,5 0,30 Z"
       transform="translate(2160.0,592.0) rotate(20) scale(0.550)"
       fill="#E8A0A8"
       opacity="0.8"
       id="path38" />
    <circle
       cx="1253.1"
       cy="402.0"
       r="33.8"
       fill="none"
       stroke="#E3B872"
       stroke-width="7.2"
       id="circle38" />
    <circle
       cx="1253.1"
       cy="402.0"
       r="33.8"
       fill="none"
       stroke="#FFFFFF"
       stroke-opacity="0.45"
       stroke-width="1.8"
       stroke-dasharray="20.3 168.9"
       id="circle39" />
    <circle
       cx="1292.9"
       cy="402.0"
       r="33.8"
       fill="none"
       stroke="#F2D39B"
       stroke-width="7.2"
       id="circle40" />
    <circle
       cx="1292.9"
       cy="402.0"
       r="33.8"
       fill="none"
       stroke="#FFFFFF"
       stroke-opacity="0.45"
       stroke-width="1.8"
       stroke-dasharray="20.3 168.9"
       id="circle41" />
    <ellipse
       cx="1885.7"
       cy="12.5"
       rx="8.9"
       ry="5.4"
       fill="#F4C6CC"
       opacity="0.65"
       transform="rotate(59 1885.7 12.5)"
       id="ellipse41" />
    <ellipse
       cx="2131.2"
       cy="397.4"
       rx="10.2"
       ry="5.9"
       fill="#F4C6CC"
       opacity="0.65"
       transform="rotate(86 2131.2 397.4)"
       id="ellipse42" />
    <ellipse
       cx="2118.7"
       cy="509.2"
       rx="8.2"
       ry="3.9"
       fill="#F4C6CC"
       opacity="0.65"
       transform="rotate(76 2118.7 509.2)"
       id="ellipse43" />
    <ellipse
       cx="285.9"
       cy="734.4"
       rx="11.3"
       ry="4.6"
       fill="#F4C6CC"
       opacity="0.65"
       transform="rotate(1 285.9 734.4)"
       id="ellipse44" />
    <ellipse
       cx="746.6"
       cy="751.3"
       rx="10.5"
       ry="5.2"
       fill="#F4C6CC"
       opacity="0.65"
       transform="rotate(81 746.6 751.3)"
       id="ellipse45" />
    <ellipse
       cx="318.1"
       cy="770.8"
       rx="10.8"
       ry="3.3"
       fill="#F4C6CC"
       opacity="0.65"
       transform="rotate(56 318.1 770.8)"
       id="ellipse46" />
    <ellipse
       cx="292.2"
       cy="44.5"
       rx="9.4"
       ry="3.2"
       fill="#F4C6CC"
       opacity="0.65"
       transform="rotate(115 292.2 44.5)"
       id="ellipse47" />
    <ellipse
       cx="2237.7"
       cy="444.3"
       rx="10.9"
       ry="3.6"
       fill="#F4C6CC"
       opacity="0.65"
       transform="rotate(24 2237.7 444.3)"
       id="ellipse48" />
    <ellipse
       cx="2231.0"
       cy="187.1"
       rx="7.8"
       ry="5.7"
       fill="#F4C6CC"
       opacity="0.65"
       transform="rotate(32 2231.0 187.1)"
       id="ellipse49" />
    <ellipse
       cx="2162.1"
       cy="414.3"
       rx="11.5"
       ry="4.2"
       fill="#F4C6CC"
       opacity="0.65"
       transform="rotate(117 2162.1 414.3)"
       id="ellipse50" />
    <ellipse
       cx="1373.8"
       cy="730.4"
       rx="6.3"
       ry="4.0"
       fill="#F4C6CC"
       opacity="0.65"
       transform="rotate(42 1373.8 730.4)"
       id="ellipse51" />
    <ellipse
       cx="2254.3"
       cy="221.9"
       rx="11.5"
       ry="5.6"
       fill="#F4C6CC"
       opacity="0.65"
       transform="rotate(46 2254.3 221.9)"
       id="ellipse52" />
    <ellipse
       cx="447.9"
       cy="667.2"
       rx="6.0"
       ry="5.5"
       fill="#F4C6CC"
       opacity="0.65"
       transform="rotate(68 447.9 667.2)"
       id="ellipse53" />
    <ellipse
       cx="1580.2"
       cy="579.7"
       rx="10.5"
       ry="5.3"
       fill="#F4C6CC"
       opacity="0.65"
       transform="rotate(73 1580.2 579.7)"
       id="ellipse54" />
    <ellipse
       cx="317.3"
       cy="673.6"
       rx="6.4"
       ry="3.4"
       fill="#F4C6CC"
       opacity="0.65"
       transform="rotate(65 317.3 673.6)"
       id="ellipse55" />
    <ellipse
       cx="532.4"
       cy="733.5"
       rx="8.3"
       ry="6.0"
       fill="#F4C6CC"
       opacity="0.65"
       transform="rotate(108 532.4 733.5)"
       id="ellipse56" />
    <ellipse
       cx="2331.6"
       cy="278.7"
       rx="9.1"
       ry="3.3"
       fill="#F4C6CC"
       opacity="0.65"
       transform="rotate(84 2331.6 278.7)"
       id="ellipse57" />
    <ellipse
       cx="437.7"
       cy="393.1"
       rx="9.6"
       ry="4.8"
       fill="#F4C6CC"
       opacity="0.65"
       transform="rotate(88 437.7 393.1)"
       id="ellipse58" />
    <ellipse
       cx="662.1"
       cy="549.8"
       rx="10.3"
       ry="5.8"
       fill="#F4C6CC"
       opacity="0.65"
       transform="rotate(38 662.1 549.8)"
       id="ellipse59" />
    <ellipse
       cx="1871.8"
       cy="61.0"
       rx="6.9"
       ry="5.6"
       fill="#F4C6CC"
       opacity="0.65"
       transform="rotate(167 1871.8 61.0)"
       id="ellipse60" />
    <ellipse
       cx="301.1"
       cy="533.2"
       rx="7.2"
       ry="4.9"
       fill="#F4C6CC"
       opacity="0.65"
       transform="rotate(10 301.1 533.2)"
       id="ellipse61" />
    <ellipse
       cx="2250.9"
       cy="288.5"
       rx="11.9"
       ry="4.3"
       fill="#F4C6CC"
       opacity="0.65"
       transform="rotate(175 2250.9 288.5)"
       id="ellipse62" />
    <ellipse
       cx="206.2"
       cy="289.2"
       rx="8.5"
       ry="5.1"
       fill="#F4C6CC"
       opacity="0.65"
       transform="rotate(73 206.2 289.2)"
       id="ellipse63" />
    <ellipse
       cx="2295.3"
       cy="788.8"
       rx="10.1"
       ry="3.8"
       fill="#F4C6CC"
       opacity="0.65"
       transform="rotate(34 2295.3 788.8)"
       id="ellipse64" />
    <ellipse
       cx="873.4"
       cy="552.3"
       rx="10.9"
       ry="5.4"
       fill="#F4C6CC"
       opacity="0.65"
       transform="rotate(119 873.4 552.3)"
       id="ellipse65" />
    <ellipse
       cx="1674.6"
       cy="728.7"
       rx="9.3"
       ry="6.0"
       fill="#F4C6CC"
       opacity="0.65"
       transform="rotate(156 1674.6 728.7)"
       id="ellipse66" />
    <ellipse
       cx="2364.0"
       cy="538.9"
       rx="9.1"
       ry="4.8"
       fill="#F4C6CC"
       opacity="0.65"
       transform="rotate(134 2364.0 538.9)"
       id="ellipse67" />
    <ellipse
       cx="934.5"
       cy="12.8"
       rx="11.6"
       ry="3.0"
       fill="#F4C6CC"
       opacity="0.65"
       transform="rotate(70 934.5 12.8)"
       id="ellipse68" />
    <ellipse
       cx="2180.5"
       cy="365.1"
       rx="7.3"
       ry="3.9"
       fill="#F4C6CC"
       opacity="0.65"
       transform="rotate(82 2180.5 365.1)"
       id="ellipse69" />
    <ellipse
       cx="824.8"
       cy="613.1"
       rx="9.3"
       ry="3.5"
       fill="#F4C6CC"
       opacity="0.65"
       transform="rotate(158 824.8 613.1)"
       id="ellipse70" />
    <ellipse
       cx="719.8"
       cy="78.5"
       rx="7.8"
       ry="4.2"
       fill="#F4C6CC"
       opacity="0.65"
       transform="rotate(63 719.8 78.5)"
       id="ellipse71" />
    <ellipse
       cx="1762.7"
       cy="798.7"
       rx="8.6"
       ry="3.9"
       fill="#F4C6CC"
       opacity="0.65"
       transform="rotate(147 1762.7 798.7)"
       id="ellipse72" />
    <ellipse
       cx="891.0"
       cy="155.2"
       rx="8.5"
       ry="5.1"
       fill="#F4C6CC"
       opacity="0.65"
       transform="rotate(50 891.0 155.2)"
       id="ellipse73" />
    <ellipse
       cx="1130.9"
       cy="590.3"
       rx="9.4"
       ry="3.8"
       fill="#F4C6CC"
       opacity="0.65"
       transform="rotate(41 1130.9 590.3)"
       id="ellipse74" />
  </g>
</svg>
