<svg xmlns="http://www.w3.org/2000/svg" width="1024" height="1024" viewBox="0 0 1024 1024">
  <title>LuXia</title>
  <defs>
    <linearGradient id="iwarm" gradientUnits="userSpaceOnUse" x1="174.08" y1="174.08" x2="849.92" y2="849.92">
      <stop offset="0" stop-color="#D98C73"/><stop offset="0.5" stop-color="#B8664F" stop-opacity="0.9"/>
      <stop offset="1" stop-color="#8E4A3A" stop-opacity="0.28"/></linearGradient>
    <linearGradient id="icool" gradientUnits="userSpaceOnUse" x1="849.92" y1="174.08" x2="174.08" y2="849.92">
      <stop offset="0" stop-color="#8F9BE6"/><stop offset="0.5" stop-color="#7078CF" stop-opacity="0.95"/>
      <stop offset="1" stop-color="#6A4DB5" stop-opacity="0.43000000000000005"/></linearGradient>
    <radialGradient id="icore" gradientUnits="userSpaceOnUse" cx="512.0" cy="512.0" r="307.2">
      <stop offset="0" stop-color="#FFFFFF" stop-opacity="1"/><stop offset="0.12" stop-color="#FFE7B0" stop-opacity="0.95"/>
      <stop offset="0.4" stop-color="#FFE7B0" stop-opacity="0.35"/><stop offset="1" stop-color="#FFFFFF" stop-opacity="0"/></radialGradient>
    <filter id="iglow" x="-20%" y="-20%" width="140%" height="140%"><feGaussianBlur stdDeviation="22.528"/></filter>
    <pattern id="igrid" patternUnits="userSpaceOnUse" width="22.528" height="22.528">
      <rect x="2.48" y="2.48" width="17.57" height="17.57" rx="2.11" fill="#FFFFFF"/></pattern>
    <mask id="ipix" maskUnits="userSpaceOnUse" x="0" y="0" width="1024" height="1024">
      <rect x="0" y="0" width="1024" height="1024" fill="url(#igrid)"/></mask>
    <linearGradient id="bg" x1="0" y1="0" x2="0" y2="1"><stop offset="0" stop-color="#FFF9F1"/><stop offset="1" stop-color="#F1E2CE"/></linearGradient>
    <clipPath id="clip"><rect x="0" y="0" width="1024" height="1024" rx="225.28"/></clipPath>
  </defs>
  <g clip-path="url(#clip)">
    <rect x="0" y="0" width="1024" height="1024" fill="url(#bg)"/>
    <g filter="url(#iglow)" opacity="0.9"><polygon points="163.2,184.9 777.5,922.3 922.3,777.5 184.9,163.2" fill="url(#iwarm)"/><polygon points="839.1,163.2 101.7,777.5 246.5,922.3 860.8,184.9" fill="url(#icool)"/></g>
    <polygon points="163.2,184.9 777.5,922.3 922.3,777.5 184.9,163.2" fill="url(#iwarm)"/>
    <g mask="url(#ipix)"><polygon points="839.1,163.2 101.7,777.5 246.5,922.3 860.8,184.9" fill="url(#icool)"/></g>
    <circle cx="512.0" cy="512.0" r="307.2" fill="url(#icore)"/>
    <circle cx="174.08" cy="174.08" r="53.2" fill="#FFD68C" stroke="#FFF5DC" stroke-width="8.2"/>
    <g stroke="#A0EBFF" stroke-width="8.2" stroke-linecap="round"><line x1="821.8" y1="122.9" x2="821.8" y2="99.8"/><line x1="798.7" y1="145.9" x2="775.7" y2="145.9"/><line x1="821.8" y1="225.3" x2="821.8" y2="248.3"/><line x1="901.1" y1="145.9" x2="924.2" y2="145.9"/><line x1="849.9" y1="122.9" x2="849.9" y2="99.8"/><line x1="798.7" y1="174.1" x2="775.7" y2="174.1"/><line x1="849.9" y1="225.3" x2="849.9" y2="248.3"/><line x1="901.1" y1="174.1" x2="924.2" y2="174.1"/><line x1="878.1" y1="122.9" x2="878.1" y2="99.8"/><line x1="798.7" y1="202.2" x2="775.7" y2="202.2"/><line x1="878.1" y1="225.3" x2="878.1" y2="248.3"/><line x1="901.1" y1="202.2" x2="924.2" y2="202.2"/></g>
    <rect x="798.7" y="122.9" width="102.4" height="102.4" rx="15.4" fill="#5AC8FF" stroke="#C8FAFF" stroke-width="8.2"/>
    <g id="decor"><circle cx="460.8" cy="532.5" r="87.0" fill="none" stroke="#E3B872" stroke-width="18.4"/><circle cx="460.8" cy="532.5" r="87.0" fill="none" stroke="#FFFFFF" stroke-opacity="0.45" stroke-width="4.6" stroke-dasharray="52.2 435.2"/><circle cx="563.2" cy="532.5" r="87.0" fill="none" stroke="#F2D39B" stroke-width="18.4"/><circle cx="563.2" cy="532.5" r="87.0" fill="none" stroke="#FFFFFF" stroke-opacity="0.45" stroke-width="4.6" stroke-dasharray="52.2 435.2"/><path d="M0,30 C-40,5 -50,-25 -25,-35 C-10,-40 0,-28 0,-20 C0,-28 10,-40 25,-35 C50,-25 40,5 0,30 Z" transform="translate(512.0,102.4) rotate(0) scale(0.700)" fill="#E8A0A8" opacity="0.85"/><path d="M0,30 C-40,5 -50,-25 -25,-35 C-10,-40 0,-28 0,-20 C0,-28 10,-40 25,-35 C50,-25 40,5 0,30 Z" transform="translate(122.9,512.0) rotate(-20) scale(0.400)" fill="#E8A0A8" opacity="0.85"/><path d="M0,30 C-40,5 -50,-25 -25,-35 C-10,-40 0,-28 0,-20 C0,-28 10,-40 25,-35 C50,-25 40,5 0,30 Z" transform="translate(901.1,512.0) rotate(20) scale(0.400)" fill="#E8A0A8" opacity="0.85"/><path d="M0,30 C-40,5 -50,-25 -25,-35 C-10,-40 0,-28 0,-20 C0,-28 10,-40 25,-35 C50,-25 40,5 0,30 Z" transform="translate(512.0,921.6) rotate(0) scale(0.500)" fill="#E8A0A8" opacity="0.85"/><ellipse cx="804.6" cy="16.0" rx="7.4" ry="4.6" fill="#F4C6CC" opacity="0.7" transform="rotate(59 804.6 16.0)"/><ellipse cx="909.3" cy="508.6" rx="8.5" ry="4.9" fill="#F4C6CC" opacity="0.7" transform="rotate(86 909.3 508.6)"/><ellipse cx="904.0" cy="651.8" rx="6.8" ry="3.6" fill="#F4C6CC" opacity="0.7" transform="rotate(76 904.0 651.8)"/><ellipse cx="901.6" cy="563.0" rx="5.0" ry="3.6" fill="#F4C6CC" opacity="0.7" transform="rotate(169 901.6 563.0)"/><ellipse cx="462.0" cy="135.7" rx="9.8" ry="4.6" fill="#F4C6CC" opacity="0.7" transform="rotate(20 462.0 135.7)"/><ellipse cx="317.1" cy="124.7" rx="5.3" ry="4.1" fill="#F4C6CC" opacity="0.7" transform="rotate(10 317.1 124.7)"/><ellipse cx="652.9" cy="954.8" rx="7.8" ry="4.6" fill="#F4C6CC" opacity="0.7" transform="rotate(35 652.9 954.8)"/><ellipse cx="922.5" cy="530.4" rx="9.6" ry="3.8" fill="#F4C6CC" opacity="0.7" transform="rotate(117 922.5 530.4)"/><ellipse cx="586.2" cy="935.0" rx="5.3" ry="3.7" fill="#F4C6CC" opacity="0.7" transform="rotate(42 586.2 935.0)"/><ellipse cx="961.8" cy="284.1" rx="9.6" ry="4.7" fill="#F4C6CC" opacity="0.7" transform="rotate(46 961.8 284.1)"/></g>
  </g>
</svg>
